<svg xmlns="http://www.w3.org/2000/svg" xmlns:xlink="http://www.w3.org/1999/xlink" width="1080" zoomAndPan="magnify" viewBox="0 0 810 809.999993" height="1080" preserveAspectRatio="xMidYMid meet" version="1.0"><defs><clipPath id="5cefd54065"><path d="M 283.5 283.5 L 526.5 283.5 L 526.5 526.5 L 283.5 526.5 Z M 283.5 283.5 " clip-rule="nonzero"/></clipPath><clipPath id="19f579bddb"><path d="M 405 283.5 C 337.898438 283.5 283.5 337.898438 283.5 405 C 283.5 472.101562 337.898438 526.5 405 526.5 C 472.101562 526.5 526.5 472.101562 526.5 405 C 526.5 337.898438 472.101562 283.5 405 283.5 Z M 405 283.5 " clip-rule="nonzero"/></clipPath><clipPath id="6357f2dda5"><path d="M 304.46875 304.46875 L 505.53125 304.46875 L 505.53125 505.53125 L 304.46875 505.53125 Z M 304.46875 304.46875 " clip-rule="nonzero"/></clipPath><clipPath id="e20a8e78d9"><path d="M 405 304.46875 C 349.480469 304.46875 304.46875 349.480469 304.46875 405 C 304.46875 460.519531 349.480469 505.53125 405 505.53125 C 460.519531 505.53125 505.53125 460.519531 505.53125 405 C 505.53125 349.480469 460.519531 304.46875 405 304.46875 Z M 405 304.46875 " clip-rule="nonzero"/></clipPath><clipPath id="3b7ea196ef"><path d="M 347.769531 407.824219 L 370.722656 407.824219 L 370.722656 430.777344 L 347.769531 430.777344 Z M 347.769531 407.824219 " clip-rule="nonzero"/></clipPath><clipPath id="da8fe43cab"><path d="M 359.246094 407.824219 C 352.90625 407.824219 347.769531 412.960938 347.769531 419.300781 C 347.769531 425.640625 352.90625 430.777344 359.246094 430.777344 C 365.585938 430.777344 370.722656 425.640625 370.722656 419.300781 C 370.722656 412.960938 365.585938 407.824219 359.246094 407.824219 Z M 359.246094 407.824219 " clip-rule="nonzero"/></clipPath><clipPath id="44bb0f3827"><path d="M 438.640625 361.914062 L 461.59375 361.914062 L 461.59375 384.871094 L 438.640625 384.871094 Z M 438.640625 361.914062 " clip-rule="nonzero"/></clipPath><clipPath id="ee0870222f"><path d="M 450.117188 361.914062 C 443.777344 361.914062 438.640625 367.054688 438.640625 373.390625 C 438.640625 379.730469 443.777344 384.871094 450.117188 384.871094 C 456.457031 384.871094 461.59375 379.730469 461.59375 373.390625 C 461.59375 367.054688 456.457031 361.914062 450.117188 361.914062 Z M 450.117188 361.914062 " clip-rule="nonzero"/></clipPath><clipPath id="990a2541f8"><path d="M 461.59375 419.300781 L 484.546875 419.300781 L 484.546875 442.253906 L 461.59375 442.253906 Z M 461.59375 419.300781 " clip-rule="nonzero"/></clipPath><clipPath id="6ef838ddf4"><path d="M 473.070312 419.300781 C 466.734375 419.300781 461.59375 424.441406 461.59375 430.777344 C 461.59375 437.117188 466.734375 442.253906 473.070312 442.253906 C 479.410156 442.253906 484.546875 437.117188 484.546875 430.777344 C 484.546875 424.441406 479.410156 419.300781 473.070312 419.300781 Z M 473.070312 419.300781 " clip-rule="nonzero"/></clipPath><clipPath id="bdd43963cb"><path d="M 393.523438 322.066406 L 416.476562 322.066406 L 416.476562 345.019531 L 393.523438 345.019531 Z M 393.523438 322.066406 " clip-rule="nonzero"/></clipPath><clipPath id="a57a69de4d"><path d="M 405 322.066406 C 398.660156 322.066406 393.523438 327.203125 393.523438 333.542969 C 393.523438 339.882812 398.660156 345.019531 405 345.019531 C 411.339844 345.019531 416.476562 339.882812 416.476562 333.542969 C 416.476562 327.203125 411.339844 322.066406 405 322.066406 Z M 405 322.066406 " clip-rule="nonzero"/></clipPath><clipPath id="41d6a0c183"><path d="M 370.722656 456.753906 L 393.675781 456.753906 L 393.675781 479.707031 L 370.722656 479.707031 Z M 370.722656 456.753906 " clip-rule="nonzero"/></clipPath><clipPath id="1860da1c01"><path d="M 382.199219 456.753906 C 375.859375 456.753906 370.722656 461.890625 370.722656 468.230469 C 370.722656 474.566406 375.859375 479.707031 382.199219 479.707031 C 388.539062 479.707031 393.675781 474.566406 393.675781 468.230469 C 393.675781 461.890625 388.539062 456.753906 382.199219 456.753906 Z M 382.199219 456.753906 " clip-rule="nonzero"/></clipPath><clipPath id="d13f7e87cd"><path d="M 393.675781 384.871094 L 416.632812 384.871094 L 416.632812 407.824219 L 393.675781 407.824219 Z M 393.675781 384.871094 " clip-rule="nonzero"/></clipPath><clipPath id="030eb36d98"><path d="M 405.152344 384.871094 C 398.816406 384.871094 393.675781 390.007812 393.675781 396.347656 C 393.675781 402.683594 398.816406 407.824219 405.152344 407.824219 C 411.492188 407.824219 416.632812 402.683594 416.632812 396.347656 C 416.632812 390.007812 411.492188 384.871094 405.152344 384.871094 Z M 405.152344 384.871094 " clip-rule="nonzero"/></clipPath><clipPath id="b7eb63f805"><path d="M 324.8125 361.914062 L 347.769531 361.914062 L 347.769531 384.871094 L 324.8125 384.871094 Z M 324.8125 361.914062 " clip-rule="nonzero"/></clipPath><clipPath id="c41b614d1c"><path d="M 336.289062 361.914062 C 329.953125 361.914062 324.8125 367.054688 324.8125 373.390625 C 324.8125 379.730469 329.953125 384.871094 336.289062 384.871094 C 342.628906 384.871094 347.769531 379.730469 347.769531 373.390625 C 347.769531 367.054688 342.628906 361.914062 336.289062 361.914062 Z M 336.289062 361.914062 " clip-rule="nonzero"/></clipPath><clipPath id="85b68aa751"><path d="M 416.632812 445.273438 L 439.585938 445.273438 L 439.585938 468.230469 L 416.632812 468.230469 Z M 416.632812 445.273438 " clip-rule="nonzero"/></clipPath><clipPath id="e011d9986b"><path d="M 428.109375 445.273438 C 421.769531 445.273438 416.632812 450.414062 416.632812 456.753906 C 416.632812 463.089844 421.769531 468.230469 428.109375 468.230469 C 434.445312 468.230469 439.585938 463.089844 439.585938 456.753906 C 439.585938 450.414062 434.445312 445.273438 428.109375 445.273438 Z M 428.109375 445.273438 " clip-rule="nonzero"/></clipPath></defs><g clip-path="url(#5cefd54065)"><g clip-path="url(#19f579bddb)"><path fill="#cd733c" d="M 283.5 283.5 L 526.5 283.5 L 526.5 526.5 L 283.5 526.5 Z M 283.5 283.5 " fill-opacity="1" fill-rule="nonzero"/></g></g><g clip-path="url(#6357f2dda5)"><g clip-path="url(#e20a8e78d9)"><path fill="#ffde59" d="M 304.46875 304.46875 L 505.53125 304.46875 L 505.53125 505.53125 L 304.46875 505.53125 Z M 304.46875 304.46875 " fill-opacity="1" fill-rule="nonzero"/></g></g><g clip-path="url(#3b7ea196ef)"><g clip-path="url(#da8fe43cab)"><path fill="#ff3131" d="M 347.769531 407.824219 L 370.722656 407.824219 L 370.722656 430.777344 L 347.769531 430.777344 Z M 347.769531 407.824219 " fill-opacity="1" fill-rule="nonzero"/></g></g><g clip-path="url(#44bb0f3827)"><g clip-path="url(#ee0870222f)"><path fill="#ff3131" d="M 438.640625 361.914062 L 461.59375 361.914062 L 461.59375 384.871094 L 438.640625 384.871094 Z M 438.640625 361.914062 " fill-opacity="1" fill-rule="nonzero"/></g></g><g clip-path="url(#990a2541f8)"><g clip-path="url(#6ef838ddf4)"><path fill="#ff3131" d="M 461.59375 419.300781 L 484.546875 419.300781 L 484.546875 442.253906 L 461.59375 442.253906 Z M 461.59375 419.300781 " fill-opacity="1" fill-rule="nonzero"/></g></g><g clip-path="url(#bdd43963cb)"><g clip-path="url(#a57a69de4d)"><path fill="#ff3131" d="M 393.523438 322.066406 L 416.476562 322.066406 L 416.476562 345.019531 L 393.523438 345.019531 Z M 393.523438 322.066406 " fill-opacity="1" fill-rule="nonzero"/></g></g><g clip-path="url(#41d6a0c183)"><g clip-path="url(#1860da1c01)"><path fill="#ff3131" d="M 370.722656 456.753906 L 393.675781 456.753906 L 393.675781 479.707031 L 370.722656 479.707031 Z M 370.722656 456.753906 " fill-opacity="1" fill-rule="nonzero"/></g></g><g clip-path="url(#d13f7e87cd)"><g clip-path="url(#030eb36d98)"><path fill="#e40e0e" d="M 393.675781 384.871094 L 416.632812 384.871094 L 416.632812 407.824219 L 393.675781 407.824219 Z M 393.675781 384.871094 " fill-opacity="1" fill-rule="nonzero"/></g></g><g clip-path="url(#b7eb63f805)"><g clip-path="url(#c41b614d1c)"><path fill="#e40e0e" d="M 324.8125 361.914062 L 347.769531 361.914062 L 347.769531 384.871094 L 324.8125 384.871094 Z M 324.8125 361.914062 " fill-opacity="1" fill-rule="nonzero"/></g></g><g clip-path="url(#85b68aa751)"><g clip-path="url(#e011d9986b)"><path fill="#e40e0e" d="M 416.632812 445.273438 L 439.585938 445.273438 L 439.585938 468.230469 L 416.632812 468.230469 Z M 416.632812 445.273438 " fill-opacity="1" fill-rule="nonzero"/></g></g></svg>